<svg xmlns="http://www.w3.org/2000/svg" width="36" height="36" viewBox="0 0 36 36"><defs><linearGradient id="bpaia" x1="4.55" x2="29.88" y1="31.58" y2="6" gradientUnits="userSpaceOnUse"><stop offset="0" stop-color="#f96b01"/><stop offset=".54" stop-color="#dd0048"/><stop offset="1" stop-color="#d0016e"/></linearGradient></defs><g><g><g><g><path fill="url(#bpaia)" d="M0 18C0 8.059 8.059 0 18 0s18 8.059 18 18-8.059 18-18 18S0 27.941 0 18z"/></g><g><path fill="#fff" d="M25.2 21.92a3.28 3.28 0 0 1-3.28 3.28h-7.84a3.28 3.28 0 0 1-3.28-3.28v-7.84a3.28 3.28 0 0 1 3.28-3.28h7.84a3.28 3.28 0 0 1 3.28 3.28zM21.92 9.25h-7.84a4.84 4.84 0 0 0-4.83 4.83v7.84a4.84 4.84 0 0 0 4.83 4.83h7.84a4.84 4.84 0 0 0 4.83-4.83v-7.84a4.84 4.84 0 0 0-4.83-4.83z"/></g><g><path fill="#fff" d="M18 21a3 3 0 1 1 0-6 3 3 0 0 1 0 6zm0-7.51a4.51 4.51 0 1 0 0 9.02 4.51 4.51 0 0 0 0-9.02z"/></g><g><path fill="#fff" d="M22.7 12.17a1.19 1.19 0 0 0-.81.34c-.21.213-.33.5-.33.8 0 .303.119.593.33.81.218.21.508.328.81.33.63 0 1.14-.51 1.14-1.14a1.1 1.1 0 0 0-.34-.8 1.15 1.15 0 0 0-.8-.34z"/></g></g></g></g></svg>