<svg xmlns="http://www.w3.org/2000/svg" viewBox="0 0 36 36">
  <defs>
    <style>.fba8565e-4391-4ac6-9891-6468e29ecc1c{fill:#50abf1;}.ad432fda-87d1-4fed-8450-b18d0a8c0a23{fill:#fff;}</style>
  </defs>
  <title>Asset 25</title>
  <g id="b07d0b0b-ce0b-4c56-880a-6563b36c10f5" >
    <g id="aa660e92-c413-4fe9-9828-3d1de4fd6c39" >
      <circle class="fba8565e-4391-4ac6-9891-6468e29ecc1c" cx="18" cy="18" r="18"/><path class="ad432fda-87d1-4fed-8450-b18d0a8c0a23" d="M27.9,13.1a8.17,8.17,0,0,1-2.24.61,3.83,3.83,0,0,0,1.71-2.14,7.8,7.8,0,0,1-2.46.94,3.88,3.88,0,0,0-6.71,2.65,4.17,4.17,0,0,0,.09.88,11,11,0,0,1-8-4,3.94,3.94,0,0,0-.53,2,3.87,3.87,0,0,0,1.73,3.22,3.76,3.76,0,0,1-1.76-.48v0a3.9,3.9,0,0,0,3.11,3.81,4.13,4.13,0,0,1-1,.13,3.54,3.54,0,0,1-.73-.07,3.91,3.91,0,0,0,3.62,2.7A7.8,7.8,0,0,1,9.9,25,7,7,0,0,1,9,24.91a11,11,0,0,0,17-9.29c0-.18,0-.34,0-.51A7.77,7.77,0,0,0,27.9,13.1Z"/>
    </g>
  </g>
</svg>