<svg xmlns="http://www.w3.org/2000/svg" width="31" height="18" viewBox="0 0 31 18">
    <g>
        <g>
            <g>
                <g>
                    <path fill="#171717"
                          d="M15.374 2.54a14.35 14.35 0 0 1 12.44 6.322 14.464 14.464 0 0 1-12.49 6.321A14.3 14.3 0 0 1 2.882 8.862a14.438 14.438 0 0 1 12.49-6.322zm-.05 15.172A16.638 16.638 0 0 0 30.342 9.43l.29-.57-.29-.568A16.638 16.638 0 0 0 15.323.012 16.689 16.689 0 0 0 .278 8.292L0 8.863l.278.569a16.689 16.689 0 0 0 15.045 8.28z"/>
                </g>
                <g>
                    <path fill="#171717"
                          d="M17.851 8.862a2.529 2.529 0 1 1-5.057 0 2.529 2.529 0 0 1 5.057 0zm2.529 0a5.057 5.057 0 1 0-10.114 0 5.057 5.057 0 0 0 10.114 0z"/>
                </g>
            </g>
        </g>
    </g>
</svg>
