<svg xmlns="http://www.w3.org/2000/svg" width="23" height="22" viewBox="0 0 23 22">
    <g>
        <g>
            <path fill="#171717"
                  d="M7.17 2.638c1.12.007 2.197.43 3.028 1.187l.418.33.47.461.522-.462.365-.33a4.508 4.508 0 0 1 6.346.052 4.624 4.624 0 0 1 .102 6.411l-7.335 7.451-7.31-7.425a4.627 4.627 0 0 1-.784-4.958A4.54 4.54 0 0 1 7.17 2.638zm13.17 9.43a7.286 7.286 0 0 0 1.218-7.79A7.149 7.149 0 0 0 15 0a7.035 7.035 0 0 0-3.915 1.2A7.035 7.035 0 0 0 7.17 0C4.331-.002 1.758 1.69.61 4.315a7.299 7.299 0 0 0 1.261 7.805l9.215 9.35z"/>
        </g>
    </g>
</svg>
