<svg xmlns="http://www.w3.org/2000/svg" width="29" height="20" viewBox="0 0 29 20">
    <g>
        <g>
            <g >
                <g>
                    <path fill="#171717" d="M6.456 2.17V0H21.65v2.17z"/>
                </g>
                <g>
                    <path fill="#171717"
                          d="M28.15 13.935c.044.119.044.25 0 .369a6.61 6.61 0 0 1-12.925 0 .543.543 0 0 1 0-.37L21.682 0zm-6.468-8.758l-4.156 8.931a.52.52 0 0 0 0 .424 4.341 4.341 0 0 0 8.237 0 .52.52 0 0 0 0-.424l-4.08-8.931"/>
                </g>
                <g>
                    <path fill="#171717"
                          d="M13 13.935c.044.119.044.25 0 .369a6.685 6.685 0 0 1-6.511 5.23 6.685 6.685 0 0 1-6.457-5.23.543.543 0 0 1 0-.37L6.489 0zM6.49 5.177l-4.113 8.899a.52.52 0 0 0 0 .423 4.341 4.341 0 0 0 4.113 2.865 4.341 4.341 0 0 0 4.08-2.832.52.52 0 0 0 0-.424L6.49 5.177"/>
                </g>
                <g>
                    <path fill="#171717" d="M1.03 15.194v-2.17h10.853v2.17z"/>
                </g>
                <g>
                    <path fill="#171717" d="M16.224 15.194v-2.17h10.852v2.17z"/>
                </g>
            </g>
        </g>
    </g>
</svg>
