<svg xmlns="http://www.w3.org/2000/svg"  width="23" height="23" viewBox="0 0 27.287 26.938" style="&#10;   ">
    <g id="Group_7599"  transform="translate(-1509.107 -140.401)">
        <path id="Subtraction_1"  d="M20823.979,2431.7h-8.217a2.655,2.655,0,0,1-2.631-2.223l-2.039-8.786a3.062,3.062,0,0,1,.455-2.5,2.665,2.665,0,0,1,2.129-1.135h.428l1.994-4.979a2.646,2.646,0,0,1,2.467-1.674h8.875a2.651,2.651,0,0,1,2.465,1.674l1.992,4.979a2.666,2.666,0,0,1,2.129,1.135,3.07,3.07,0,0,1,.578,2.5l-.822,3.541h-2.828l.7-3.06h-.037a.933.933,0,0,0-.826-1.187h-15.973a.931.931,0,0,0-.7.4.942.942,0,0,0-.131.79l1.6,6.935a.863.863,0,0,0,.842.664h7.547v2.929Zm-4.83-18.635a.871.871,0,0,0-.8.544l-1.355,3.447h11.982l-1.334-3.447a.868.868,0,0,0-.8-.544h-7.691Z" transform="translate(-19301.889 -2270)" fill="#171717"/>
        <rect id="Rectangle_2620" width="13.112" height="2.384" rx="1" transform="translate(1523.283 155.419)" fill="#171717"/>
        <rect id="Rectangle_2621"  width="13.112" height="2.384" rx="1" transform="translate(1523.283 160.187)" fill="#171717"/>
        <rect id="Rectangle_2622" width="13.112" height="2.384" rx="1" transform="translate(1523.283 164.955)" fill="#171717"/>
    </g>
</svg>
