<svg xmlns="http://www.w3.org/2000/svg" width="21" height="22" viewBox="0 0 21  22" fill="none">
    <path d="M10.2705 5.39539C10.2773 5.78508 10.2065 6.17222 10.0621 6.53423C9.91766 6.89623 9.70259 7.22585 9.42942 7.50384C9.15625 7.78184 8.83045 8.00264 8.47103 8.15336C8.11161 8.30408 7.72576 8.38171 7.33602 8.38171C6.94627 8.38171 6.56043 8.30408 6.20101 8.15336C5.84158 8.00264 5.51578 7.78184 5.24261 7.50384C4.96944 7.22585 4.75438 6.89623 4.60997 6.53423C4.46556 6.17222 4.3947 5.78508 4.40152 5.39539C4.41499 4.62601 4.73008 3.89269 5.27894 3.35336C5.8278 2.81402 6.56652 2.51181 7.33602 2.51181C8.10552 2.51181 8.84424 2.81402 9.3931 3.35336C9.94196 3.89269 10.257 4.62601 10.2705 5.39539V5.39539ZM11.738 5.39539C11.7463 4.81202 11.6386 4.23282 11.4211 3.69143C11.2037 3.15005 10.8808 2.6573 10.4712 2.24182C10.0616 1.82633 9.57349 1.49641 9.03527 1.27121C8.49706 1.04602 7.91945 0.930054 7.33602 0.930054C6.75259 0.930054 6.17498 1.04602 5.63676 1.27121C5.09854 1.49641 4.61046 1.82633 4.20087 2.24182C3.79128 2.6573 3.46836 3.15005 3.25088 3.69143C3.03341 4.23282 2.92571 4.81202 2.93404 5.39539C2.95733 6.54734 3.43129 7.64426 4.2542 8.4507C5.07711 9.25715 6.18338 9.70884 7.33557 9.70884C8.48775 9.70884 9.59402 9.25715 10.4169 8.4507C11.2398 7.64426 11.7138 6.54734 11.7371 5.39539H11.738Z"
          fill="#171717"/>
    <path fill-rule="evenodd" clip-rule="evenodd"
          d="M3.8453 11.5568C2.83499 12.3043 2.0913 13.3563 1.72367 14.5581H-0.000976562C0.379662 12.8971 1.31266 11.4144 2.64543 10.3525C3.9782 9.29058 5.63186 8.71234 7.33595 8.71234C9.04003 8.71234 10.6937 9.29058 12.0265 10.3525C12.2791 10.5538 12.5173 10.7701 12.7402 11H9.90892C9.11169 10.6111 8.23226 10.4059 7.33595 10.4059C6.07919 10.4059 4.85562 10.8094 3.8453 11.5568Z"
          fill="#171717"/>
    <path d="M8 14.2984C8 13.3992 8.89919 12.5 9.79838 12.5H16.2545C17.1537 12.5 18.0529 13.3992 18.0529 14.2984V18.3897C18.0529 19.2889 17.1537 20.1881 16.2545 20.1881H9.79838C8.89919 20.1881 8 19.2889 8 18.3897V14.2984Z"
          stroke="#171717" stroke-width="1.7" stroke-miterlimit="20"/>
</svg>
