<svg xmlns="http://www.w3.org/2000/svg" width="21" height="18" viewBox="0 0 21 18"><g><g><g><g><path fill="#181818" d="M18.038 8.201l-1.316 7.368a.292.292 0 0 1-.09.18H4.26a.236.236 0 0 1-.101-.18L2.853 8.201a.337.337 0 0 1 .1-.326H17.96c.09.083.12.212.078.326zM16.655 18a2.396 2.396 0 0 0 2.317-2.036l1.316-7.368a2.598 2.598 0 0 0-.562-2.137 2.25 2.25 0 0 0-1.755-.833H2.954a2.25 2.25 0 0 0-1.8.833 2.632 2.632 0 0 0-.551 2.137l1.429 7.368a2.396 2.396 0 0 0 2.25 2.036h12.373z"/></g><g><path fill="#181818" d="M16.351 7.875c-.442 0-.842-.26-1.023-.663l-2.25-4.894a.101.101 0 0 0-.101-.067H7.892a.135.135 0 0 0-.112.067L5.53 7.212a1.125 1.125 0 0 1-2.047-.923l2.25-4.893A2.373 2.373 0 0 1 7.892 0h5.084c.962-.029 1.848.52 2.25 1.395l2.193 4.893a1.125 1.125 0 0 1-1.069 1.586z"/></g></g></g></g></svg>