<svg xmlns="http://www.w3.org/2000/svg" width="22" height="21" viewBox="0 0 22 21"><g><g><g><path d="M17.872 20.01H4.406a1.824 1.824 0 0 1-1.822-1.823V8.602a.634.634 0 1 1 1.268 0v9.585c0 .306.249.555.554.555h13.466a.555.555 0 0 0 .555-.554V8.601a.634.634 0 0 1 1.267 0v9.585a1.824 1.824 0 0 1-1.822 1.822z"/><path fill="none" stroke="#000" stroke-miterlimit="20" stroke-width=".4" d="M17.872 20.01H4.406a1.824 1.824 0 0 1-1.822-1.823V8.602a.634.634 0 1 1 1.268 0v9.585c0 .306.249.555.554.555h13.466a.555.555 0 0 0 .555-.554V8.601a.634.634 0 0 1 1.267 0v9.585a1.824 1.824 0 0 1-1.822 1.822z"/></g><g><path d="M20.645 10.82a.631.631 0 0 1-.448-.186l-7.882-7.88a1.665 1.665 0 0 0-2.352 0l-7.881 7.88a.634.634 0 1 1-.896-.896l7.88-7.881a2.934 2.934 0 0 1 4.146 0l7.88 7.881a.634.634 0 0 1-.447 1.082z"/><path fill="none" stroke="#000" stroke-miterlimit="20" stroke-width=".4" d="M20.645 10.82a.631.631 0 0 1-.448-.186l-7.882-7.88a1.665 1.665 0 0 0-2.352 0l-7.881 7.88a.634.634 0 1 1-.896-.896l7.88-7.881a2.934 2.934 0 0 1 4.146 0l7.88 7.881a.634.634 0 0 1-.447 1.082z"/></g><g><path d="M9.238 13.752c0-.393.32-.713.713-.713h2.376c.394 0 .713.32.713.713v4.99H9.238zm4.436 6.257c.35 0 .634-.283.634-.633v-5.624c0-1.092-.889-1.98-1.98-1.98H9.95c-1.092 0-1.98.888-1.98 1.98v5.624c0 .35.284.633.634.633z"/><path fill="none" stroke="#000" stroke-miterlimit="20" stroke-width=".4" d="M9.238 13.752c0-.393.32-.713.713-.713h2.376c.394 0 .713.32.713.713v4.99H9.238zm4.436 6.257c.35 0 .634-.283.634-.633v-5.624c0-1.092-.889-1.98-1.98-1.98H9.95c-1.092 0-1.98.888-1.98 1.98v5.624c0 .35.284.633.634.633z"/></g></g></g></svg>