<svg xmlns="http://www.w3.org/2000/svg" width="28" height="28" viewBox="0 0 28 28"><g><g><g><g><path fill="#34abde" d="M0 14C0 6.268 6.268 0 14 0s14 6.268 14 14-6.268 14-14 14S0 21.732 0 14z"/></g><g><path fill="#fff" d="M6.17 13.616l8.713-3.588c.863-.38 3.778-1.584 3.778-1.584s1.354-.523 1.235.744c0 .53-.332 2.376-.633 4.349l-.935 5.877s-.079.863-.713 1.014c-.67 0-1.32-.22-1.853-.626-.15-.111-2.812-1.798-3.786-2.622a.705.705 0 0 1 .04-1.196 223.469 223.469 0 0 0 3.96-3.746c.451-.452.903-1.497-.974-.23l-5.276 3.564a2.21 2.21 0 0 1-1.726 0c-1.125-.332-2.432-.792-2.432-.792s-.935-.523.602-1.164z"/></g></g></g></g></svg>